<svg width="80" height="80" viewBox="0 0 80 80" fill="none" xmlns="http://www.w3.org/2000/svg">
<path opacity="0.5" fill-rule="evenodd" clip-rule="evenodd" d="M40 0C32.0887 0 24.3552 2.34596 17.7772 6.74122C11.1992 11.1365 6.07232 17.3836 3.04482 24.6927C0.0173111 32.0017 -0.774826 40.0444 0.768585 47.8036C2.312 55.5629 6.12163 62.6902 11.7157 68.2843C17.3098 73.8784 24.4371 77.688 32.1964 79.2314C39.9556 80.7748 47.9983 79.9827 55.3073 76.9552C62.6164 73.9277 68.8635 68.8008 73.2588 62.2228C77.654 55.6448 80 47.9113 80 40C80 29.3913 75.7857 19.2172 68.2843 11.7157C60.7828 4.21427 50.6087 0 40 0Z" fill="#F28300"/>
<path opacity="0.5" fill-rule="evenodd" clip-rule="evenodd" d="M39.9992 11.9661C34.4546 11.9661 29.0345 13.6102 24.4244 16.6906C19.8142 19.7711 16.221 24.1494 14.0992 29.2719C11.9774 34.3944 11.4222 40.0311 12.5039 45.4692C13.5856 50.9073 16.2556 55.9024 20.1762 59.8231C24.0968 63.7437 29.092 66.4137 34.5301 67.4954C39.9681 68.5771 45.6048 68.0219 50.7274 65.9001C55.8499 63.7782 60.2282 60.1851 63.3086 55.5749C66.389 50.9647 68.0332 45.5446 68.0332 40C68.0332 32.565 65.0796 25.4344 59.8222 20.177C54.5648 14.9196 47.4343 11.9661 39.9992 11.9661Z" fill="#FA9116"/>
<path fill-rule="evenodd" clip-rule="evenodd" d="M39.2726 49.2962L30.3649 31.5535C30.2842 31.3971 30.2573 31.2185 30.2882 31.0454C30.3191 30.8722 30.4062 30.714 30.536 30.5952C30.6658 30.4765 30.8311 30.4037 31.0064 30.3883C31.1816 30.3729 31.3571 30.4155 31.5057 30.5098L40.0008 35.8981L48.4474 30.4127C48.5922 30.308 48.7663 30.2517 48.945 30.2517C49.1236 30.2517 49.2977 30.308 49.4425 30.4127C49.5266 30.4899 49.5937 30.5836 49.6397 30.6881C49.6856 30.7925 49.7094 30.9054 49.7095 31.0195C49.7427 31.1386 49.7427 31.2645 49.7095 31.3836L40.8018 49.2234C40.7314 49.3553 40.6265 49.4657 40.4982 49.5426C40.3699 49.6196 40.2232 49.6602 40.0736 49.6602C39.924 49.6602 39.7773 49.6196 39.649 49.5426C39.5208 49.4657 39.4158 49.3553 39.3455 49.2234" fill="white"/>
</svg>
