<svg xmlns="http://www.w3.org/2000/svg" xmlns:xlink="http://www.w3.org/1999/xlink" width="500" zoomAndPan="magnify" viewBox="0 0 375 374.999991" height="500" preserveAspectRatio="xMidYMid meet" version="1.0"><defs><g/><clipPath id="ac033b793b"><path d="M 156 89.511719 L 219 89.511719 L 219 226 L 156 226 Z M 156 89.511719 " clip-rule="nonzero"/></clipPath><clipPath id="ea4d0ca792"><path d="M 119.136719 90 L 255.636719 90 L 255.636719 226.011719 L 119.136719 226.011719 Z M 119.136719 90 " clip-rule="nonzero"/></clipPath></defs><rect x="-37.5" width="450" fill="#ffffff" y="-37.499999" height="449.999989" fill-opacity="1"/><g clip-path="url(#ac033b793b)"><path fill="#f9ac02" d="M 205.078125 117.496094 L 173.980469 117.496094 L 156.210938 169.339844 L 176.519531 169.339844 L 159.023438 225.113281 L 218.535156 155.851562 L 191.917969 155.851562 Z M 212.53125 95.710938 L 212.992188 94.425781 C 205.078125 91.234375 196.394531 89.511719 187.386719 89.511719 C 186.105469 89.511719 184.738281 89.511719 183.457031 89.59375 L 178.652344 103.898438 L 176.113281 111.269531 L 207.179688 111.269531 L 208.542969 107.449219 Z M 212.53125 95.710938 " fill-opacity="1" fill-rule="nonzero"/></g><g clip-path="url(#ea4d0ca792)"><path fill="#f47e57" d="M 219.820312 97.703125 C 225.660156 100.789062 231.039062 104.800781 235.679688 109.46875 C 247.992188 121.863281 255.636719 138.898438 255.636719 157.761719 C 255.636719 176.628906 247.992188 193.664062 235.679688 206.054688 C 223.285156 218.367188 206.25 226.011719 187.386719 226.011719 C 181.378906 226.011719 175.621094 225.195312 170.078125 223.828125 L 180.371094 211.898438 L 194.757812 195.136719 L 189.378906 212.28125 C 203.683594 211.734375 216.542969 205.8125 225.90625 196.335938 C 235.84375 186.511719 241.933594 172.832031 241.933594 157.789062 C 241.933594 142.746094 235.816406 129.097656 225.90625 119.242188 C 224.816406 118.070312 223.53125 116.976562 222.359375 115.882812 L 209.773438 127.105469 L 215.234375 110.890625 Z M 163.964844 123.226562 L 169.886719 106.085938 L 171.605469 101.171875 L 175.15625 90.605469 C 161.207031 93.0625 148.730469 99.886719 139.066406 109.46875 C 126.78125 121.863281 119.136719 138.898438 119.136719 157.761719 C 119.136719 176.628906 126.78125 193.664062 139.09375 206.054688 C 143.460938 210.34375 148.292969 214.082031 153.671875 217.085938 L 157.875 203.679688 L 163.882812 184.625 L 151.40625 198.738281 C 150.585938 197.921875 149.683594 197.101562 148.867188 196.28125 C 138.929688 186.457031 132.839844 172.777344 132.839844 157.734375 C 132.839844 142.691406 138.957031 129.042969 148.867188 119.1875 C 152.796875 115.175781 157.328125 111.898438 162.351562 109.25 Z M 163.964844 123.226562 " fill-opacity="1" fill-rule="nonzero"/></g><g fill="#000000" fill-opacity="1"><g transform="translate(100.251536, 266.323681)"><g><path d="M 13.90625 0 L 2.140625 0 L 2.140625 -19.8125 L 13.90625 -19.8125 L 13.90625 -15.515625 L 7.5 -15.515625 L 7.5 -12.390625 L 13.421875 -12.390625 L 13.421875 -8.109375 L 7.5 -8.109375 L 7.5 -4.359375 L 13.90625 -4.359375 Z M 13.90625 0 "/></g></g></g><g fill="#000000" fill-opacity="1"><g transform="translate(116.672364, 266.323681)"><g><path d="M 2.140625 0 L 2.140625 -19.8125 L 7.5 -19.8125 L 7.5 -4.328125 L 15.125 -4.328125 L 15.125 0 Z M 2.140625 0 "/></g></g></g><g fill="#000000" fill-opacity="1"><g transform="translate(134.014433, 266.323681)"><g><path d="M 13.90625 0 L 2.140625 0 L 2.140625 -19.8125 L 13.90625 -19.8125 L 13.90625 -15.515625 L 7.5 -15.515625 L 7.5 -12.390625 L 13.421875 -12.390625 L 13.421875 -8.109375 L 7.5 -8.109375 L 7.5 -4.359375 L 13.90625 -4.359375 Z M 13.90625 0 "/></g></g></g><g fill="#000000" fill-opacity="1"><g transform="translate(150.435261, 266.323681)"><g><path d="M 10.96875 -15.703125 C 9.6875 -15.703125 8.6875 -15.179688 7.96875 -14.140625 C 7.257812 -13.097656 6.90625 -11.660156 6.90625 -9.828125 C 6.90625 -6.015625 8.359375 -4.109375 11.265625 -4.109375 C 12.140625 -4.109375 12.988281 -4.226562 13.8125 -4.46875 C 14.632812 -4.71875 15.457031 -5.015625 16.28125 -5.359375 L 16.28125 -0.828125 C 14.632812 -0.0976562 12.765625 0.265625 10.671875 0.265625 C 7.679688 0.265625 5.390625 -0.597656 3.796875 -2.328125 C 2.203125 -4.066406 1.40625 -6.570312 1.40625 -9.84375 C 1.40625 -11.894531 1.789062 -13.695312 2.5625 -15.25 C 3.332031 -16.8125 4.441406 -18.007812 5.890625 -18.84375 C 7.347656 -19.675781 9.054688 -20.09375 11.015625 -20.09375 C 13.160156 -20.09375 15.207031 -19.628906 17.15625 -18.703125 L 15.515625 -14.484375 C 14.785156 -14.828125 14.050781 -15.113281 13.3125 -15.34375 C 12.582031 -15.582031 11.800781 -15.703125 10.96875 -15.703125 Z M 10.96875 -15.703125 "/></g></g></g><g fill="#000000" fill-opacity="1"><g transform="translate(169.633365, 266.323681)"><g><path d="M 10.875 0 L 5.53125 0 L 5.53125 -15.4375 L 0.6875 -15.4375 L 0.6875 -19.8125 L 15.703125 -19.8125 L 15.703125 -15.4375 L 10.875 -15.4375 Z M 10.875 0 "/></g></g></g><g fill="#000000" fill-opacity="1"><g transform="translate(187.219289, 266.323681)"><g><path d="M 7.5 -7.203125 L 7.5 0 L 2.140625 0 L 2.140625 -19.8125 L 8.625 -19.8125 C 14.007812 -19.8125 16.703125 -17.859375 16.703125 -13.953125 C 16.703125 -11.660156 15.582031 -9.882812 13.34375 -8.625 L 19.125 0 L 13.046875 0 L 8.84375 -7.203125 Z M 7.5 -11.234375 L 8.5 -11.234375 C 10.363281 -11.234375 11.296875 -12.0625 11.296875 -13.71875 C 11.296875 -15.082031 10.378906 -15.765625 8.546875 -15.765625 L 7.5 -15.765625 Z M 7.5 -11.234375 "/></g></g></g><g fill="#000000" fill-opacity="1"><g transform="translate(207.1896, 266.323681)"><g><path d="M 2.140625 0 L 2.140625 -19.8125 L 7.515625 -19.8125 L 7.515625 0 Z M 2.140625 0 "/></g></g></g><g fill="#000000" fill-opacity="1"><g transform="translate(218.042345, 266.323681)"><g><path d="M 10.96875 -15.703125 C 9.6875 -15.703125 8.6875 -15.179688 7.96875 -14.140625 C 7.257812 -13.097656 6.90625 -11.660156 6.90625 -9.828125 C 6.90625 -6.015625 8.359375 -4.109375 11.265625 -4.109375 C 12.140625 -4.109375 12.988281 -4.226562 13.8125 -4.46875 C 14.632812 -4.71875 15.457031 -5.015625 16.28125 -5.359375 L 16.28125 -0.828125 C 14.632812 -0.0976562 12.765625 0.265625 10.671875 0.265625 C 7.679688 0.265625 5.390625 -0.597656 3.796875 -2.328125 C 2.203125 -4.066406 1.40625 -6.570312 1.40625 -9.84375 C 1.40625 -11.894531 1.789062 -13.695312 2.5625 -15.25 C 3.332031 -16.8125 4.441406 -18.007812 5.890625 -18.84375 C 7.347656 -19.675781 9.054688 -20.09375 11.015625 -20.09375 C 13.160156 -20.09375 15.207031 -19.628906 17.15625 -18.703125 L 15.515625 -14.484375 C 14.785156 -14.828125 14.050781 -15.113281 13.3125 -15.34375 C 12.582031 -15.582031 11.800781 -15.703125 10.96875 -15.703125 Z M 10.96875 -15.703125 "/></g></g></g><g fill="#000000" fill-opacity="1"><g transform="translate(237.240445, 266.323681)"><g><path d="M 14.296875 0 L 13.3125 -3.71875 L 6.890625 -3.71875 L 5.875 0 L 0 0 L 6.46875 -19.890625 L 13.609375 -19.890625 L 20.15625 0 Z M 12.203125 -8.109375 L 11.359375 -11.359375 C 11.160156 -12.078125 10.914062 -13.007812 10.625 -14.15625 C 10.34375 -15.300781 10.15625 -16.125 10.0625 -16.625 C 9.988281 -16.164062 9.832031 -15.40625 9.59375 -14.34375 C 9.351562 -13.289062 8.820312 -11.210938 8 -8.109375 Z M 12.203125 -8.109375 "/></g></g></g><g fill="#000000" fill-opacity="1"><g transform="translate(258.579076, 266.323681)"><g><path d="M 2.140625 0 L 2.140625 -19.8125 L 7.5 -19.8125 L 7.5 -4.328125 L 15.125 -4.328125 L 15.125 0 Z M 2.140625 0 "/></g></g></g><g fill="#ff5704" fill-opacity="1"><g transform="translate(132.558487, 283.23066)"><g><path d="M 4.84375 0 L 0.75 0 L 0.75 -6.90625 L 4.84375 -6.90625 L 4.84375 -5.40625 L 2.609375 -5.40625 L 2.609375 -4.328125 L 4.6875 -4.328125 L 4.6875 -2.828125 L 2.609375 -2.828125 L 2.609375 -1.515625 L 4.84375 -1.515625 Z M 4.84375 0 "/></g></g></g><g fill="#ff5704" fill-opacity="1"><g transform="translate(139.219774, 283.23066)"><g><path d="M 7.3125 0 L 4.875 0 L 2.359375 -4.859375 L 2.3125 -4.859375 C 2.375 -4.097656 2.40625 -3.515625 2.40625 -3.109375 L 2.40625 0 L 0.75 0 L 0.75 -6.90625 L 3.1875 -6.90625 L 5.703125 -2.109375 L 5.71875 -2.109375 C 5.675781 -2.804688 5.65625 -3.363281 5.65625 -3.78125 L 5.65625 -6.90625 L 7.3125 -6.90625 Z M 7.3125 0 "/></g></g></g><g fill="#ff5704" fill-opacity="1"><g transform="translate(148.638654, 283.23066)"><g><path d="M 4.84375 0 L 0.75 0 L 0.75 -6.90625 L 4.84375 -6.90625 L 4.84375 -5.40625 L 2.609375 -5.40625 L 2.609375 -4.328125 L 4.6875 -4.328125 L 4.6875 -2.828125 L 2.609375 -2.828125 L 2.609375 -1.515625 L 4.84375 -1.515625 Z M 4.84375 0 "/></g></g></g><g fill="#ff5704" fill-opacity="1"><g transform="translate(155.299941, 283.23066)"><g><path d="M 2.609375 -2.515625 L 2.609375 0 L 0.75 0 L 0.75 -6.90625 L 3.015625 -6.90625 C 4.890625 -6.90625 5.828125 -6.222656 5.828125 -4.859375 C 5.828125 -4.066406 5.4375 -3.453125 4.65625 -3.015625 L 6.65625 0 L 4.546875 0 L 3.078125 -2.515625 Z M 2.609375 -3.921875 L 2.96875 -3.921875 C 3.613281 -3.921875 3.9375 -4.207031 3.9375 -4.78125 C 3.9375 -5.257812 3.617188 -5.5 2.984375 -5.5 L 2.609375 -5.5 Z M 2.609375 -3.921875 "/></g></g></g><g fill="#ff5704" fill-opacity="1"><g transform="translate(163.198368, 283.23066)"><g><path d="M 3.515625 -4.046875 L 6.5 -4.046875 L 6.5 -0.328125 C 5.6875 -0.046875 4.796875 0.09375 3.828125 0.09375 C 2.765625 0.09375 1.941406 -0.210938 1.359375 -0.828125 C 0.773438 -1.441406 0.484375 -2.320312 0.484375 -3.46875 C 0.484375 -4.582031 0.800781 -5.445312 1.4375 -6.0625 C 2.082031 -6.6875 2.976562 -7 4.125 -7 C 4.550781 -7 4.957031 -6.957031 5.34375 -6.875 C 5.726562 -6.800781 6.066406 -6.695312 6.359375 -6.5625 L 5.765625 -5.109375 C 5.265625 -5.347656 4.71875 -5.46875 4.125 -5.46875 C 3.582031 -5.46875 3.160156 -5.289062 2.859375 -4.9375 C 2.566406 -4.582031 2.421875 -4.078125 2.421875 -3.421875 C 2.421875 -2.773438 2.550781 -2.28125 2.8125 -1.9375 C 3.082031 -1.601562 3.472656 -1.4375 3.984375 -1.4375 C 4.265625 -1.4375 4.519531 -1.460938 4.75 -1.515625 L 4.75 -2.609375 L 3.515625 -2.609375 Z M 3.515625 -4.046875 "/></g></g></g><g fill="#ff5704" fill-opacity="1"><g transform="translate(171.710642, 283.23066)"><g><path d="M 3.21875 -4.34375 L 4.40625 -6.90625 L 6.421875 -6.90625 L 4.15625 -2.703125 L 4.15625 0 L 2.265625 0 L 2.265625 -2.640625 L 0 -6.90625 L 2.03125 -6.90625 Z M 3.21875 -4.34375 "/></g></g></g><g fill="#ff5704" fill-opacity="1"><g transform="translate(179.486298, 283.23066)"><g/></g></g><g fill="#ff5704" fill-opacity="1"><g transform="translate(183.352217, 283.23066)"><g><path d="M 3.828125 -5.46875 C 3.378906 -5.46875 3.03125 -5.285156 2.78125 -4.921875 C 2.53125 -4.554688 2.40625 -4.054688 2.40625 -3.421875 C 2.40625 -2.097656 2.910156 -1.4375 3.921875 -1.4375 C 4.222656 -1.4375 4.515625 -1.476562 4.796875 -1.5625 C 5.085938 -1.644531 5.378906 -1.742188 5.671875 -1.859375 L 5.671875 -0.28125 C 5.097656 -0.03125 4.445312 0.09375 3.71875 0.09375 C 2.675781 0.09375 1.875 -0.207031 1.3125 -0.8125 C 0.757812 -1.414062 0.484375 -2.289062 0.484375 -3.4375 C 0.484375 -4.144531 0.617188 -4.769531 0.890625 -5.3125 C 1.160156 -5.851562 1.546875 -6.269531 2.046875 -6.5625 C 2.554688 -6.851562 3.15625 -7 3.84375 -7 C 4.582031 -7 5.296875 -6.835938 5.984375 -6.515625 L 5.40625 -5.046875 C 5.15625 -5.171875 4.898438 -5.269531 4.640625 -5.34375 C 4.390625 -5.425781 4.117188 -5.46875 3.828125 -5.46875 Z M 3.828125 -5.46875 "/></g></g></g><g fill="#ff5704" fill-opacity="1"><g transform="translate(190.981495, 283.23066)"><g><path d="M 7.203125 -3.46875 C 7.203125 -2.300781 6.914062 -1.414062 6.34375 -0.8125 C 5.78125 -0.207031 4.945312 0.09375 3.84375 0.09375 C 2.757812 0.09375 1.925781 -0.207031 1.34375 -0.8125 C 0.769531 -1.425781 0.484375 -2.3125 0.484375 -3.46875 C 0.484375 -4.613281 0.769531 -5.488281 1.34375 -6.09375 C 1.925781 -6.707031 2.765625 -7.015625 3.859375 -7.015625 C 4.953125 -7.015625 5.78125 -6.710938 6.34375 -6.109375 C 6.914062 -5.503906 7.203125 -4.625 7.203125 -3.46875 Z M 2.453125 -3.46875 C 2.453125 -2.125 2.914062 -1.453125 3.84375 -1.453125 C 4.320312 -1.453125 4.671875 -1.613281 4.890625 -1.9375 C 5.117188 -2.269531 5.234375 -2.78125 5.234375 -3.46875 C 5.234375 -4.15625 5.117188 -4.660156 4.890625 -4.984375 C 4.660156 -5.316406 4.316406 -5.484375 3.859375 -5.484375 C 2.921875 -5.484375 2.453125 -4.8125 2.453125 -3.46875 Z M 2.453125 -3.46875 "/></g></g></g><g fill="#ff5704" fill-opacity="1"><g transform="translate(200.04151, 283.23066)"><g><path d="M 3.75 0 L 2.34375 -4.96875 L 2.296875 -4.96875 C 2.367188 -4.125 2.40625 -3.46875 2.40625 -3 L 2.40625 0 L 0.75 0 L 0.75 -6.90625 L 3.234375 -6.90625 L 4.671875 -2 L 4.703125 -2 L 6.125 -6.90625 L 8.609375 -6.90625 L 8.609375 0 L 6.890625 0 L 6.890625 -3.03125 C 6.890625 -3.1875 6.890625 -3.359375 6.890625 -3.546875 C 6.898438 -3.742188 6.925781 -4.21875 6.96875 -4.96875 L 6.921875 -4.96875 L 5.53125 0 Z M 3.75 0 "/></g></g></g><g fill="#ff5704" fill-opacity="1"><g transform="translate(210.744748, 283.23066)"><g><path d="M 5.75 -4.703125 C 5.75 -3.929688 5.519531 -3.335938 5.0625 -2.921875 C 4.613281 -2.503906 3.972656 -2.296875 3.140625 -2.296875 L 2.609375 -2.296875 L 2.609375 0 L 0.75 0 L 0.75 -6.90625 L 3.140625 -6.90625 C 4.003906 -6.90625 4.65625 -6.710938 5.09375 -6.328125 C 5.53125 -5.953125 5.75 -5.410156 5.75 -4.703125 Z M 2.609375 -3.8125 L 2.953125 -3.8125 C 3.234375 -3.8125 3.457031 -3.890625 3.625 -4.046875 C 3.789062 -4.203125 3.875 -4.421875 3.875 -4.703125 C 3.875 -5.160156 3.613281 -5.390625 3.09375 -5.390625 L 2.609375 -5.390625 Z M 2.609375 -3.8125 "/></g></g></g><g fill="#ff5704" fill-opacity="1"><g transform="translate(218.208759, 283.23066)"><g><path d="M 4.984375 0 L 4.640625 -1.296875 L 2.40625 -1.296875 L 2.046875 0 L 0 0 L 2.25 -6.9375 L 4.734375 -6.9375 L 7.015625 0 Z M 4.25 -2.828125 L 3.953125 -3.953125 C 3.890625 -4.203125 3.804688 -4.523438 3.703125 -4.921875 C 3.609375 -5.328125 3.546875 -5.617188 3.515625 -5.796875 C 3.484375 -5.628906 3.425781 -5.363281 3.34375 -5 C 3.257812 -4.632812 3.070312 -3.910156 2.78125 -2.828125 Z M 4.25 -2.828125 "/></g></g></g><g fill="#ff5704" fill-opacity="1"><g transform="translate(226.584098, 283.23066)"><g><path d="M 7.3125 0 L 4.875 0 L 2.359375 -4.859375 L 2.3125 -4.859375 C 2.375 -4.097656 2.40625 -3.515625 2.40625 -3.109375 L 2.40625 0 L 0.75 0 L 0.75 -6.90625 L 3.1875 -6.90625 L 5.703125 -2.109375 L 5.71875 -2.109375 C 5.675781 -2.804688 5.65625 -3.363281 5.65625 -3.78125 L 5.65625 -6.90625 L 7.3125 -6.90625 Z M 7.3125 0 "/></g></g></g><g fill="#ff5704" fill-opacity="1"><g transform="translate(236.002972, 283.23066)"><g><path d="M 3.21875 -4.34375 L 4.40625 -6.90625 L 6.421875 -6.90625 L 4.15625 -2.703125 L 4.15625 0 L 2.265625 0 L 2.265625 -2.640625 L 0 -6.90625 L 2.03125 -6.90625 Z M 3.21875 -4.34375 "/></g></g></g></svg>