<svg width="44" height="14" viewBox="0 0 44 14" fill="none" xmlns="http://www.w3.org/2000/svg">
<path d="M1.29742 7.79246H17.167L13.3817 11.5378C13.2235 11.6986 13.1349 11.9142 13.1349 12.1387C13.1349 12.3631 13.2235 12.5787 13.3817 12.7395C13.5408 12.8949 13.7554 12.982 13.9789 12.982C14.2024 12.982 14.4169 12.8949 14.576 12.7395L19.8186 7.55212C19.8994 7.4738 19.9636 7.38031 20.0074 7.27713C20.0512 7.17396 20.0738 7.06317 20.0738 6.95126C20.0738 6.83935 20.0512 6.72856 20.0074 6.62538C19.9636 6.52221 19.8994 6.42872 19.8186 6.3504L14.576 1.16297C14.4098 1.05146 14.209 1.00179 14.0092 1.02277C13.897 1.02118 13.7855 1.0416 13.6813 1.08285C13.5771 1.1241 13.4822 1.18537 13.402 1.26311C13.2437 1.42392 13.1552 1.63951 13.1552 1.86397C13.1552 2.08843 13.2437 2.30403 13.402 2.46483L17.1872 6.2102H1.29742C1.18578 6.2102 1.07523 6.23196 0.972081 6.27423C0.868935 6.3165 0.775216 6.37847 0.696272 6.45658C0.617328 6.53469 0.554705 6.62743 0.51198 6.72949C0.469256 6.83155 0.447266 6.94093 0.447266 7.0514C0.447266 7.16187 0.469256 7.27126 0.51198 7.37332C0.554705 7.47538 0.617328 7.56811 0.696272 7.64622C0.775216 7.72434 0.868935 7.7863 0.972081 7.82857C1.07523 7.87085 1.18578 7.89261 1.29742 7.89261" fill="#F6B40E"/>
<path d="M24.9244 7.8402H40.7332L36.948 11.5856C36.8672 11.6639 36.803 11.7574 36.7592 11.8605C36.7154 11.9637 36.6928 12.0745 36.6928 12.1864C36.6928 12.2983 36.7154 12.4091 36.7592 12.5123C36.803 12.6155 36.8672 12.709 36.948 12.7873C37.1071 12.9426 37.3216 13.0297 37.5451 13.0297C37.7686 13.0297 37.9831 12.9426 38.1422 12.7873L43.3848 7.59986C43.5431 7.43905 43.6317 7.22346 43.6317 6.999C43.6317 6.77454 43.5431 6.55894 43.3848 6.39814L38.1422 1.21071C38.0621 1.13296 37.9671 1.07169 37.8629 1.03044C37.7587 0.989191 37.6472 0.968771 37.535 0.970362C37.3668 0.971916 37.2028 1.02281 37.0639 1.1166C36.9249 1.21039 36.8172 1.34286 36.7543 1.49725C36.6915 1.65164 36.6763 1.821 36.7108 1.98391C36.7453 2.14682 36.8278 2.29595 36.948 2.41243L40.7332 6.15779H24.9244C24.6989 6.15779 24.4827 6.24642 24.3232 6.40418C24.1638 6.56193 24.0742 6.7759 24.0742 6.999C24.0742 7.2221 24.1638 7.43606 24.3232 7.59382C24.4827 7.75157 24.6989 7.8402 24.9244 7.8402Z" fill="#F6B40E"/>
</svg>
